<?xml version="1.0" encoding="UTF-8" standalone="no"?>
<!-- Created with Inkscape (http://www.inkscape.org/) -->

<svg
   width="210mm"
   height="297mm"
   viewBox="0 0 210 297"
   version="1.1"
   id="svg793"
   xml:space="preserve"
   inkscape:version="1.2.1 (9c6d41e410, 2022-07-14)"
   sodipodi:docname="jquery.svg"
   inkscape:export-filename="js-square.svg"
   inkscape:export-xdpi="96"
   inkscape:export-ydpi="96"
   xmlns:inkscape="http://www.inkscape.org/namespaces/inkscape"
   xmlns:sodipodi="http://sodipodi.sourceforge.net/DTD/sodipodi-0.dtd"
   xmlns="http://www.w3.org/2000/svg"
   xmlns:svg="http://www.w3.org/2000/svg"><sodipodi:namedview
     id="namedview795"
     pagecolor="#ffffff"
     bordercolor="#000000"
     borderopacity="0.25"
     inkscape:showpageshadow="2"
     inkscape:pageopacity="0.0"
     inkscape:pagecheckerboard="0"
     inkscape:deskcolor="#d1d1d1"
     inkscape:document-units="mm"
     showgrid="false"
     inkscape:zoom="0.75544332"
     inkscape:cx="332.9171"
     inkscape:cy="618.18006"
     inkscape:window-width="1649"
     inkscape:window-height="1024"
     inkscape:window-x="188"
     inkscape:window-y="121"
     inkscape:window-maximized="0"
     inkscape:current-layer="layer1" /><defs
     id="defs790"><linearGradient
       id="linearGradient4690"
       inkscape:swatch="solid"><stop
         style="stop-color:#2600b4;stop-opacity:1;"
         offset="0"
         id="stop4688" /></linearGradient><linearGradient
       id="linearGradient4658"
       inkscape:swatch="gradient"><stop
         style="stop-color:#d00000;stop-opacity:1;"
         offset="0.30581039"
         id="stop4654" /><stop
         style="stop-color:#d00000;stop-opacity:0;"
         offset="0.88990825"
         id="stop4656" /></linearGradient></defs><g
     inkscape:label="Layer 1"
     inkscape:groupmode="layer"
     id="layer1"><g
       id="g37052"
       transform="matrix(7.6919834,0,0,7.5525931,14.517228,59.094536)"><path
         d="m 1.406,16.346 c 0.023,0.052 0.049,0.1 0.077,0.148 0.013,0.028 0.031,0.057 0.047,0.083 0.026,0.052 0.054,0.102 0.081,0.152 l 0.157,0.264 c 0.029,0.049 0.057,0.097 0.09,0.145 0.055,0.094 0.12,0.186 0.177,0.28 0.026,0.039 0.05,0.078 0.079,0.117 0.11,0.171 0.21,0.313 0.317,0.451 0.076,0.103 0.152,0.204 0.234,0.305 0.027,0.038 0.057,0.076 0.085,0.114 l 0.221,0.268 c 0.027,0.031 0.054,0.067 0.083,0.099 0.098,0.118 0.202,0.232 0.306,0.348 0,0.002 0.003,0.004 0.005,0.007 0.129,0.162 0.268,0.306 0.42,0.434 l 0.004,0.004 c 0.08,0.082 0.16,0.163 0.245,0.243 l 0.101,0.097 c 0.111,0.104 0.222,0.207 0.339,0.307 0.002,0 0.003,0.002 0.005,0.003 l 0.057,0.05 c 0.102,0.089 0.205,0.177 0.31,0.259 l 0.125,0.105 c 0.085,0.068 0.173,0.132 0.26,0.199 l 0.136,0.104 c 0.093,0.07 0.192,0.138 0.287,0.206 0.035,0.025 0.07,0.05 0.106,0.073 l 0.029,0.023 0.281,0.184 0.12,0.08 c 0.147,0.094 0.293,0.182 0.439,0.27 0.042,0.021 0.084,0.044 0.123,0.068 0.108,0.062 0.22,0.125 0.329,0.182 0.06,0.034 0.122,0.063 0.184,0.094 0.075,0.042 0.153,0.083 0.233,0.125 0.022,0.007 0.04,0.014 0.058,0.024 L 7.56,22.257 c 0.033,0.015 0.064,0.031 0.096,0.047 0.12,0.06 0.245,0.117 0.375,0.173 0.024,0.01 0.05,0.02 0.076,0.034 0.144,0.063 0.288,0.123 0.437,0.181 0.034,0.01 0.07,0.027 0.105,0.04 0.135,0.051 0.274,0.103 0.412,0.152 l 0.05,0.018 c 0.153,0.052 0.304,0.102 0.46,0.149 0.036,0.01 0.073,0.023 0.111,0.033 0.159,0.048 0.313,0.105 0.474,0.135 10.273,1.863 13.258,-6.146 13.258,-6.146 -2.508,3.25 -6.959,4.107 -11.174,3.153 -0.156,-0.036 -0.312,-0.086 -0.47,-0.132 a 11.753,11.753 0 0 1 -0.663,-0.209 l 0.095,0.029 -0.062,-0.024 c -0.136,-0.046 -0.267,-0.097 -0.4,-0.148 A 1.53,1.53 0 0 0 10.641,19.704 L 10.63,19.701 c -0.147,-0.059 -0.29,-0.119 -0.432,-0.182 -0.031,-0.01 -0.057,-0.024 -0.088,-0.036 a 13.656,13.656 0 0 1 -0.5,-0.23 l 0.138,0.061 A 1.483,1.483 0 0 1 9.642,19.262 C 9.548,19.218 9.454,19.168 9.362,19.121 A 3.784,3.784 0 0 1 9.155,19.015 l 0.02,0.01 C 9.062,18.965 8.949,18.9 8.835,18.839 8.801,18.815 8.762,18.795 8.723,18.773 A 14.058,14.058 0 0 1 8.221,18.467 l 0.063,0.038 A 2.042,2.042 0 0 1 8.16,18.422 l 0.006,0.004 A 6.039,6.039 0 0 1 7.85,18.218 C 7.816,18.196 7.785,18.172 7.75,18.148 A 8.47,8.47 0 0 1 7.432,17.92 l 0.024,0.017 C 7.414,17.903 7.369,17.871 7.324,17.838 7.236,17.769 7.147,17.703 7.059,17.631 L 6.941,17.537 A 10.16,10.16 0 0 1 6.571,17.228 L 6.57,17.227 6.223,16.912 6.123,16.818 C 6.041,16.735 5.957,16.656 5.873,16.574 l -0.097,-0.1 A 9.008,9.008 0 0 1 5.473,16.159 L 5.467,16.152 5.45,16.138 A 17.877,17.877 0 0 1 5.137,15.785 C 5.11,15.754 5.085,15.721 5.057,15.688 L 4.83,15.413 A 13.75,13.75 0 0 1 4.53,15.022 L 4.49,14.966 C 2.152,11.79 1.306,7.407 3.177,3.811 L 1.525,5.9 c -2.125,3.039 -1.862,6.991 -0.237,10.218 0.037,0.079 0.078,0.153 0.118,0.228 z"
         fill="#1266a9"
         id="path37031" /><path
         d="M 8.563,11.968 8.552,11.952 8.543,11.94 Z"
         id="path37033" /><path
         d="m 9.681,13.28 0.09,0.09 c 0.114,0.11 0.231,0.217 0.35,0.324 l 0.015,0.013 c 0.12,0.106 0.255,0.217 0.394,0.325 l 0.021,0.016 c 0.034,0.023 0.063,0.05 0.096,0.073 0.14,0.108 0.281,0.211 0.428,0.314 l 0.015,0.009 c 0.062,0.045 0.128,0.086 0.198,0.13 0.028,0.018 0.06,0.042 0.09,0.06 0.106,0.068 0.21,0.131 0.317,0.196 0.017,0.007 0.032,0.016 0.048,0.023 0.09,0.055 0.188,0.108 0.282,0.156 0.033,0.02 0.065,0.035 0.099,0.054 0.067,0.033 0.133,0.068 0.197,0.102 l 0.032,0.014 c 0.135,0.066 0.273,0.128 0.408,0.189 0.034,0.013 0.063,0.024 0.092,0.038 0.111,0.048 0.224,0.094 0.335,0.136 0.05,0.017 0.097,0.037 0.144,0.052 0.102,0.038 0.209,0.073 0.31,0.108 l 0.14,0.045 c 0.146,0.045 0.294,0.104 0.449,0.128 7.933,1.306 9.769,-4.771 9.769,-4.771 -1.653,2.367 -4.852,3.495 -8.261,2.614 a 8.215,8.215 0 0 1 -0.506,-0.145 l 0.057,0.016 C 15.242,13.576 15.2,13.561 15.154,13.547 15.05,13.511 14.943,13.476 14.842,13.439 L 14.698,13.385 C 14.586,13.34 14.472,13.298 14.363,13.25 14.329,13.235 14.298,13.225 14.272,13.21 14.132,13.147 13.991,13.085 13.854,13.019 l -0.206,-0.107 -0.119,-0.06 c -0.092,-0.048 -0.177,-0.098 -0.265,-0.149 a 0.558,0.558 0 0 1 -0.065,-0.036 l 0.003,10e-4 C 13.096,12.602 12.986,12.538 12.884,12.471 12.85,12.452 12.819,12.429 12.787,12.409 L 12.579,12.274 C 12.435,12.174 12.294,12.067 12.151,11.963 12.119,11.934 12.088,11.91 12.057,11.884 10.558,10.711 9.376,9.108 8.815,7.293 8.224,5.406 8.354,3.29 9.375,1.573 L 8.12,3.341 c -1.541,2.201 -1.454,5.143 -0.254,7.471 0.219,0.43 0.441,0.793 0.686,1.139 0.228,0.326 0.48,0.708 0.784,0.97 0.108,0.123 0.224,0.24 0.345,0.359 z"
         fill="#1266a9"
         id="path37035" /><path
         d="M 2.436,17.992 2.432,17.986 2.425,17.977 Z m 4.158,-0.744 0.01,0.007 0.002,0.003 z"
         id="path37037" /><path
         d="m 13.666,1.427 c -0.909,1.327 -0.996,2.975 -0.37,4.438 0.665,1.554 2.024,2.774 3.608,3.352 0.065,0.025 0.128,0.046 0.195,0.07 l 0.088,0.027 c 0.092,0.029 0.185,0.063 0.28,0.084 4.381,0.841 5.567,-2.238 5.886,-2.691 -1.043,1.49 -2.792,1.848 -4.938,1.329 a 4.753,4.753 0 0 1 -0.55,-0.17 l 0.033,0.011 A 6.196,6.196 0 0 1 17.242,7.607 L 17.28,7.624 C 16.87,7.424 16.518,7.208 16.191,6.96 14.273,5.51 13.087,2.749 14.339,0.5 Z"
         fill="#1266a9"
         id="path37039" /></g></g><style
     id="style7814">.st0{fill:#d4b830}.st1,.st2{opacity:.986;fill:#ebebeb;fill-opacity:0;enable-background:new}.st2{fill-opacity:.9216}.st3{fill:#fdd83c}</style></svg>
