<?xml version="1.0" encoding="UTF-8" standalone="no"?>
<!-- Created with Inkscape (http://www.inkscape.org/) -->

<svg
   width="210mm"
   height="297mm"
   viewBox="0 0 210 297"
   version="1.1"
   id="svg793"
   xml:space="preserve"
   inkscape:version="1.2.1 (9c6d41e410, 2022-07-14)"
   sodipodi:docname="js-square.svg"
   inkscape:export-filename="js-square.svg"
   inkscape:export-xdpi="96"
   inkscape:export-ydpi="96"
   xmlns:inkscape="http://www.inkscape.org/namespaces/inkscape"
   xmlns:sodipodi="http://sodipodi.sourceforge.net/DTD/sodipodi-0.dtd"
   xmlns:xlink="http://www.w3.org/1999/xlink"
   xmlns="http://www.w3.org/2000/svg"
   xmlns:svg="http://www.w3.org/2000/svg"><sodipodi:namedview
     id="namedview795"
     pagecolor="#ffffff"
     bordercolor="#000000"
     borderopacity="0.25"
     inkscape:showpageshadow="2"
     inkscape:pageopacity="0.0"
     inkscape:pagecheckerboard="0"
     inkscape:deskcolor="#d1d1d1"
     inkscape:document-units="mm"
     showgrid="false"
     inkscape:zoom="0.75544332"
     inkscape:cx="189.95469"
     inkscape:cy="506.98707"
     inkscape:window-width="1649"
     inkscape:window-height="1024"
     inkscape:window-x="189"
     inkscape:window-y="7"
     inkscape:window-maximized="0"
     inkscape:current-layer="g3486" /><defs
     id="defs790"><pattern
       inkscape:collect="always"
       xlink:href="#Strips1_1"
       id="pattern8201"
       patternTransform="matrix(10,0,0,10,-2.3603554e-6,0.67626633)" /><pattern
       inkscape:collect="always"
       patternUnits="userSpaceOnUse"
       width="2"
       height="1"
       patternTransform="translate(0,0) scale(10,10)"
       id="Strips1_1"
       inkscape:stockid="Stripes 1:1"
       inkscape:isstock="true"><rect
         style="fill:black;stroke:none"
         x="0"
         y="-0.5"
         width="1"
         height="2"
         id="rect5676" /></pattern><linearGradient
       id="linearGradient4690"
       inkscape:swatch="solid"><stop
         style="stop-color:#2600b4;stop-opacity:1;"
         offset="0"
         id="stop4688" /></linearGradient><linearGradient
       id="linearGradient4658"
       inkscape:swatch="gradient"><stop
         style="stop-color:#d00000;stop-opacity:1;"
         offset="0.30581039"
         id="stop4654" /><stop
         style="stop-color:#d00000;stop-opacity:0;"
         offset="0.88990825"
         id="stop4656" /></linearGradient></defs><g
     inkscape:label="Layer 1"
     inkscape:groupmode="layer"
     id="layer1"><g
       style="fill:none;stroke:#2600b4;stroke-opacity:0.23628692"
       id="g3486"
       transform="matrix(0.26458333,0,0,0.26458333,17.236715,70.472564)"><g
         id="g10837"
         transform="matrix(1.278225,0,0,1.1370673,-89.237643,-81.44887)"><path
           id="path5113"
           class="st0"
           d="M 129.22281,540.63509 82.851417,63.063431 582.41548,63.24571 536.43377,540.27053 332.24378,594.22519 Z M 498.83008,514.56916 537.6028,105.5345 H 333.02313 l 1.5587,451.14117 z M 313.92902,165.50437 h -49.68363 l -0.58451,244.80105 -96.4447,-24.6077 0.19483,55.95973 146.51801,37.00269 z"
           style="fill:#d45f30;fill-opacity:1;stroke-width:0;stroke-dasharray:none" /><path
           id="path5159"
           class="st1"
           d="m 297.56265,474.10316 c -6.42965,-1.82279 -38.1882,-9.84308 -70.53128,-18.04564 L 168.3852,441.2929 v -27.52417 c 0,-26.97733 0,-27.52417 2.92257,-26.61277 1.5587,0.54683 22.99086,6.01521 47.54042,12.39498 l 44.61785,11.4836 0.38967,-122.12711 0.38968,-122.1271 h 48.70945 v 155.30193 c 0,123.40306 -0.38968,155.30193 -1.75354,155.30193 -0.97419,-0.18228 -7.209,-1.64051 -13.63865,-3.28103 z"
           style="stroke-width:1.88454" /><path
           id="path5157"
           class="st2"
           d="m 159.4792,440.56193 -0.20538,-57.61651 c 0,0 64.90178,16.70316 101.66577,25.33625 l 0.61616,-251.8611 h 52.37327 v 322.23957 z"
           style="stroke-width:0;stroke-dasharray:none" /><path
           id="path5117"
           class="st3"
           d="M 333.02313,106.0285 H 537.6028 l -38.77272,409.03466 -165.80695,42.10651 z m 155.28571,340.49766 13.4438,-152.9323 -99.36726,10.38992 v -81.66111 l 105.99175,-0.36456 4.28643,-55.77746 -159.96182,0.72912 2.14322,203.0591 96.63954,-15.49374 -1.36387,45.20526 -97.41889,24.24314 0.97419,55.41289 z"
           style="stroke:url(#pattern8201);stroke-width:0;stroke-dasharray:none" /></g></g></g><style
     id="style7814">.st0{fill:#d4b830}.st1,.st2{opacity:.986;fill:#ebebeb;fill-opacity:0;enable-background:new}.st2{fill-opacity:.9216}.st3{fill:#fdd83c}</style></svg>
