<?xml version="1.0" encoding="UTF-8" standalone="no"?>
<!-- Created with Inkscape (http://www.inkscape.org/) -->

<svg
   width="210mm"
   height="297mm"
   viewBox="0 0 210 297"
   version="1.1"
   id="svg793"
   xml:space="preserve"
   inkscape:version="1.2.1 (9c6d41e410, 2022-07-14)"
   sodipodi:docname="laravel.svg"
   inkscape:export-filename="js-square.svg"
   inkscape:export-xdpi="96"
   inkscape:export-ydpi="96"
   xmlns:inkscape="http://www.inkscape.org/namespaces/inkscape"
   xmlns:sodipodi="http://sodipodi.sourceforge.net/DTD/sodipodi-0.dtd"
   xmlns="http://www.w3.org/2000/svg"
   xmlns:svg="http://www.w3.org/2000/svg"><sodipodi:namedview
     id="namedview795"
     pagecolor="#ffffff"
     bordercolor="#000000"
     borderopacity="0.25"
     inkscape:showpageshadow="2"
     inkscape:pageopacity="0.0"
     inkscape:pagecheckerboard="0"
     inkscape:deskcolor="#d1d1d1"
     inkscape:document-units="mm"
     showgrid="false"
     inkscape:zoom="0.75544332"
     inkscape:cx="227.01902"
     inkscape:cy="506.98707"
     inkscape:window-width="1649"
     inkscape:window-height="1024"
     inkscape:window-x="189"
     inkscape:window-y="7"
     inkscape:window-maximized="0"
     inkscape:current-layer="layer1" /><defs
     id="defs790"><linearGradient
       id="linearGradient4690"
       inkscape:swatch="solid"><stop
         style="stop-color:#2600b4;stop-opacity:1;"
         offset="0"
         id="stop4688" /></linearGradient><linearGradient
       id="linearGradient4658"
       inkscape:swatch="gradient"><stop
         style="stop-color:#d00000;stop-opacity:1;"
         offset="0.30581039"
         id="stop4654" /><stop
         style="stop-color:#d00000;stop-opacity:0;"
         offset="0.88990825"
         id="stop4656" /></linearGradient></defs><g
     inkscape:label="Layer 1"
     inkscape:groupmode="layer"
     id="layer1"><path
       d="m 202.9476,108.34002 a 3.1528017,2.8580474 0 0 1 0.103,0.7384 v 38.76207 a 3.1177273,2.826252 0 0 1 -1.56647,2.45175 l -35.88898,18.73097 v 37.12641 c 0,1.0108 -0.59211,1.94306 -1.55881,2.45177 l -74.915167,39.09414 c -0.17072,0.0934 -0.357893,0.14556 -0.544973,0.20564 -0.07374,0.0268 -0.132704,0.0533 -0.210532,0.08 a 3.137213,2.8439159 0 0 1 -1.597839,0 c -0.0883,-0.0268 -0.163583,-0.0667 -0.246002,-0.0933 -0.172253,-0.0534 -0.350578,-0.10678 -0.514052,-0.19086 L 11.108283,208.60332 A 3.1216242,2.8297847 0 0 1 9.5416539,206.15156 V 89.865416 c 0,-0.255023 0.04416,-0.502045 0.103091,-0.742397 0.02934,-0.08003 0.07374,-0.154963 0.103101,-0.236446 0.05896,-0.148175 0.117893,-0.300447 0.198792,-0.437976 0.05896,-0.09337 0.1472341,-0.165634 0.2135921,-0.251022 0.0883,-0.106702 0.172252,-0.229657 0.27693,-0.328456 0.0883,-0.08003 0.206194,-0.141626 0.307834,-0.212438 0.117894,-0.08003 0.213595,-0.176305 0.343205,-0.24433 h 0.0026 L 48.542468,67.865266 a 3.1255214,2.8333176 0 0 1 3.11764,0 l 37.451756,19.547085 h 0.0082 c 0.117898,0.06669 0.229681,0.158845 0.343202,0.240327 0.103155,0.06669 0.215131,0.134842 0.303425,0.212197 0.103028,0.106701 0.187056,0.218987 0.279867,0.332458 0.07374,0.08003 0.156169,0.158844 0.210533,0.251023 0.08833,0.141626 0.147231,0.28975 0.201851,0.437972 0.02928,0.08003 0.08833,0.156178 0.103144,0.240329 a 3.1528017,2.8580474 0 0 1 0.103154,0.738395 v 72.631168 l 31.20839,-16.28976 v -37.12988 c 0,-0.24702 0.0441,-0.49806 0.10311,-0.73437 0.0293,-0.08 0.0738,-0.15885 0.10312,-0.24034 0.0589,-0.14816 0.11789,-0.30042 0.20339,-0.43794 0.0589,-0.0933 0.14724,-0.16564 0.21052,-0.25102 0.0884,-0.10671 0.17099,-0.22966 0.27984,-0.32849 0.0884,-0.08 0.20338,-0.14162 0.30347,-0.21219 0.11793,-0.08 0.2179,-0.17631 0.34317,-0.24435 h 0.003 l 37.45573,-19.547089 a 3.1216242,2.8297847 0 0 1 3.11777,0 l 37.45161,19.547089 c 0.13267,0.0667 0.23426,0.15884 0.35057,0.24032 0.103,0.0667 0.21051,0.13484 0.30048,0.2122 0.103,0.10695 0.18705,0.21899 0.28132,0.33248 0.0738,0.08 0.15618,0.15884 0.21052,0.25102 0.0884,0.1375 0.14723,0.28973 0.2034,0.43795 0.0292,0.08 0.0884,0.15618 0.103,0.24034 z m -6.13408,37.86482 v -32.23343 l -13.10608,6.83946 -18.10629,9.4503 v 32.23343 l 31.21621,-16.28976 z m -37.45173,58.30912 V 172.2593 l -17.80994,9.22064 -50.857876,26.31243 v 32.55842 z M 15.79044,94.756388 V 204.51396 l 68.660159,35.83336 v -32.55134 l -35.869381,-18.40249 -0.01269,-0.007 -0.01523,-0.007 c -0.117894,-0.0667 -0.222525,-0.15496 -0.33583,-0.23379 -0.103102,-0.0667 -0.21053,-0.13361 -0.29607,-0.20564 l -0.0076,-0.0105 c -0.103101,-0.0934 -0.170977,-0.19764 -0.257766,-0.29641 -0.07374,-0.0933 -0.170978,-0.17631 -0.234264,-0.27506 l -0.0052,-0.0105 c -0.07374,-0.10678 -0.117893,-0.23378 -0.163582,-0.35385 -0.04416,-0.10677 -0.117894,-0.2042 -0.147253,-0.3178 v -0.003 c -0.04415,-0.13479 -0.04415,-0.27507 -0.05895,-0.41392 -0.01523,-0.10678 -0.04416,-0.2122 -0.04416,-0.31779 v -0.007 -75.88834 L 28.900248,101.59336 15.794012,94.760971 Z M 50.12442,73.58075 18.919842,89.863427 50.116614,106.14625 81.317361,89.859959 50.116614,73.58075 Z m 16.22786,101.61784 18.1023,-9.4467 V 94.756388 l -13.106242,6.839642 -18.106149,9.45026 v 70.99535 z m 96.13125,-82.402849 -31.20073,16.282679 31.20073,16.28282 31.19662,-16.28629 z m -3.12174,37.465429 -18.10617,-9.4503 -13.10606,-6.83946 v 32.23343 l 18.1023,9.44665 13.10993,6.84311 z m -71.793397,72.63821 45.764287,-23.68389 22.87641,-11.83502 -31.17733,-16.27212 -35.896764,18.73456 -32.716549,17.0741 z"
       fill="#ff2d20"
       fill-rule="evenodd"
       id="path31078"
       style="stroke-width:3.71051" /></g><style
     id="style7814">.st0{fill:#d4b830}.st1,.st2{opacity:.986;fill:#ebebeb;fill-opacity:0;enable-background:new}.st2{fill-opacity:.9216}.st3{fill:#fdd83c}</style></svg>
